<?xml version='1.0' encoding='utf-8'?>
<svg xmlns="http://www.w3.org/2000/svg" width="2000" height="2000" viewBox="0 0 529.16665 529.16668" version="1.1" id="svg46190"> <defs id="defs46187"/> <g id="layer1"> <g id="g20544"> <rect style="fill:#f6ffd5;fill-opacity:1;stroke:none;stroke-width:4.99999;stroke-linecap:round;stroke-linejoin:round" id="rect20268" width="529.16669" height="529.16669" x="-1.0172526e-05" y="-1.0172526e-05"/> <ellipse style="fill:#eeffaa;fill-opacity:1;stroke:none;stroke-width:4.99999;stroke-linecap:round;stroke-linejoin:round" id="path20390" cx="173.74597" cy="486.05576" rx="139.10503" ry="32.475883"/> <ellipse style="fill:#eeffaa;fill-opacity:1;stroke:none;stroke-width:4.99999;stroke-linecap:round;stroke-linejoin:round" id="ellipse20494" cx="349.11575" cy="489.30334" rx="139.10503" ry="32.475883"/> <g id="g20244" transform="matrix(3.7608662,-1.0312322,1.0312322,3.7608662,-196.18072,-262.47272)" style="stroke-width:0.256431"> <path style="fill:#abc837;stroke:none;stroke-width:0.0678472px;stroke-linecap:butt;stroke-linejoin:miter;stroke-opacity:1" d="m 78.745249,168.35009 c -8.657181,-6.37538 -9.510265,-8.29127 -13.347777,-11.91255 l 15.52783,10.69854 z" id="path6481"/> <path style="fill:#abc837;stroke:none;stroke-width:0.0678472px;stroke-linecap:butt;stroke-linejoin:miter;stroke-opacity:1" d="m 48.904776,132.25873 0.417955,19.77742 -2.296393,-0.14354 c 1.628367,-5.75584 0.389797,-13.27596 0.526256,-19.9499 z" id="path6149"/> <path style="fill:#89a02c;stroke-width:0.256431" d="m 80.925302,167.13609 c 0.396092,-0.15624 0.282382,-0.29745 -0.661458,-0.82144 -7.484391,-4.1551 -16.258836,-12.62194 -22.155177,-20.95904 -5.800637,-8.20177 -10.862632,-20.54168 -13.314309,-32.45702 -0.995117,-4.83634 -1.358617,-8.923 -1.273884,-14.32159 0.08788,-5.59891 0.08738,-5.60078 -1.494864,-5.60078 -1.605113,0 -1.709291,-1.18366 -1.238753,5.86016 0.628804,9.41301 1.143516,13.38163 2.931554,19.89787 1.309749,4.77317 2.502331,10.52643 3.105124,14.9797 0.537175,3.96851 1.294507,13.21228 0.82293,15.52418 -0.175705,0.86138 -0.290013,1.5942 -0.254019,1.62849 0.03599,0.0343 0.303488,0.10342 0.594429,0.15364 0.462058,0.0797 0.572884,-0.14303 0.875974,-1.76079 0.190844,-1.01864 -0.24073,-5.92792 -0.140431,-9.85698 l 0.182358,-7.14375 1.087216,2.27221 c 4.710938,9.84556 11.898807,19.39736 19.209768,25.52745 2.708627,2.27112 4.733179,3.15331 7.737748,5.36994 2.509327,1.85126 3.094675,2.05925 3.985794,1.70775 z" id="path1250"/> <path style="fill:#de2d20;fill-opacity:1;stroke-width:0.256431" d="m 80.167774,168.48812 c 0.620235,-0.38403 1.359844,-0.65971 1.614506,-0.66146 0.254661,-0.002 0.797466,-0.42984 0.767483,-0.57224 -0.287547,-1.36561 -3.37346,-0.0899 -3.867373,0.83296 -0.386988,0.72309 -0.495438,1.6272 1.485384,0.40074 z" id="path1248"/> <path style="fill:#de2d20;fill-opacity:1;stroke-width:0.256431" d="m 39.133317,211.65496 c 0.717636,-0.2066 1.806734,-0.37768 2.42022,-0.38016 0.613485,-0.002 1.506453,-0.18765 1.984375,-0.41146 0.47792,-0.22382 1.396553,-0.59086 2.041404,-0.81565 0.64485,-0.22479 1.537819,-0.6783 1.984375,-1.00779 0.446556,-0.3295 1.109575,-0.72966 1.473377,-0.88924 0.363802,-0.15959 1.232178,-0.79531 1.929723,-1.41271 0.697545,-0.6174 1.332746,-1.05806 1.411554,-0.97926 0.377622,0.37763 1.794682,-0.54814 3.383865,-2.21068 0.96552,-1.01009 1.981007,-1.83615 2.257198,-1.83615 0.828407,0 2.049409,-1.24397 2.908556,-2.96328 4.81489,-7.4849 5.795079,-19.12384 5.836249,-26.29211 0,-0.66356 -0.139512,-1.46654 -0.310028,-1.7844 -0.170514,-0.31785 -0.284853,-1.06918 -0.254088,-1.66962 0.04325,-0.84414 -0.101779,-1.27914 -0.639535,-1.91823 -0.382521,-0.45459 -0.847814,-0.82652 -1.033999,-0.82652 -0.195424,0 -0.399095,-0.45163 -0.481822,-1.06842 -0.18056,-1.34617 -0.779037,-2.26766 -1.903736,-2.93126 -0.736113,-0.43431 -0.875892,-0.66702 -0.854477,-1.42254 0.0302,-1.06547 -0.505378,-1.73988 -1.872355,-2.35771 -0.541391,-0.2447 -1.246482,-0.84605 -1.566871,-1.33635 -1.050568,-1.60771 -3.126936,-2.78997 -4.899946,-2.78997 -0.425315,0 -1.306139,-0.31227 -1.957387,-0.69392 -0.98611,-0.5779 -1.410301,-0.67219 -2.537069,-0.56392 -1.074991,0.10329 -1.602467,0.002 -2.567196,-0.49403 -1.631326,-0.8384 -6.16208,-1.15375 -7.39753,-0.51487 -0.441023,0.22806 -1.39395,0.41465 -2.117616,0.41465 -1.017457,0 -1.493973,0.14996 -2.101854,0.66146 -0.432354,0.3638 -1.058742,0.66146 -1.391973,0.66146 -0.837322,0 -2.790837,0.98318 -3.351603,1.68683 -0.255228,0.32025 -0.844408,0.73829 -1.309289,0.92896 -0.464881,0.19068 -1.771434,1.3533 -2.903451,2.58361 -2.414542,2.62419 -2.45969,2.68782 -2.464967,3.47379 -0.0024,0.35658 -0.388362,0.94082 -0.943609,1.42834 -1.03721,0.91068 -1.706276,2.02358 -1.706276,2.83816 0,0.29181 -0.306768,0.98233 -0.681707,1.5345 -0.569508,0.8387 -0.66779,1.24635 -0.59715,2.47681 0.07368,1.28352 -0.0078,1.5827 -0.634162,2.32703 -0.922195,1.09597 -1.380191,2.60098 -1.05534,3.46793 0.179883,0.48006 0.116334,0.936 -0.239705,1.71979 -0.507848,1.11798 -0.600746,2.29121 -0.252049,3.18321 0.135688,0.3471 0.0329,0.86318 -0.298747,1.49997 -0.449334,0.86275 -0.484501,1.30435 -0.315968,3.96777 0.176353,2.787 0.239143,3.04338 0.896233,3.6594 0.677775,0.63542 0.691181,0.70007 0.328688,1.58519 -0.498278,1.21667 -0.268465,2.89919 0.478627,3.50415 0.503095,0.40738 0.537179,0.5648 0.281251,1.29896 -0.426706,1.22405 -0.358226,1.9367 0.237945,2.47622 0.291042,0.26339 0.529167,0.63343 0.529167,0.82231 0,0.80311 0.679072,1.71907 1.563593,2.10902 0.928583,0.40939 0.947876,0.44823 0.85781,1.72708 -0.112224,1.59346 0.371364,2.44517 1.651074,2.90791 0.500996,0.18117 1.03737,0.60696 1.191942,0.94621 0.332446,0.72964 1.77937,1.67154 2.569926,1.67294 0.307066,5.3e-4 0.990887,0.40897 1.519603,0.90761 l 0.9613,0.90663 2.978313,-0.0112 c 1.638073,-0.006 3.514095,0.10858 4.168939,0.25501 0.654844,0.14643 1.258312,0.27927 1.34104,0.29522 0.08273,0.016 0.737572,-0.14005 1.455209,-0.34666 z" id="path1180"/> <path id="path3014" style="fill:#999999;stroke-width:0.256431" d="m 52.065031,134.03755 -0.0021,0.008 -0.100666,-0.21969"/> <path id="path3008" style="fill:#999999;stroke-width:0.256431" d="m 44.344071,93.28669 c 0.110271,-0.128614 0.205087,-0.257281 0.28488,-0.388779"/> <path id="path3004" style="fill:#999999;stroke-width:0.256431" d="m 45.755388,114.35718 c -0.181856,-0.41712 -0.342707,-0.85003 -0.489014,-1.32509"/> <path style="fill:#e33d30;fill-opacity:1;stroke-width:0.256431" d="m 99.175609,227.62972 c 0.74706,0.0671 2.926271,0.0798 4.101041,0.0239 0.29104,-0.0139 0.87697,-0.003 1.30206,0.0252 0.42509,0.0277 1.10953,-0.17018 1.52097,-0.43977 0.49118,-0.32184 1.12823,-0.46678 1.85505,-0.42209 1.3838,0.0851 2.0357,-0.25456 2.46148,-1.2825 0.27791,-0.67092 0.48069,-0.80386 1.22615,-0.80386 0.64915,0 1.17324,-0.25301 1.9182,-0.92604 0.56376,-0.50932 1.15094,-0.92604 1.30484,-0.92604 0.45602,0 2.16959,-1.74587 2.16959,-2.2105 0,-0.23551 0.41834,-0.81677 0.92965,-1.29167 0.60429,-0.56127 0.95154,-1.14125 0.99218,-1.65721 0.0344,-0.43656 0.37993,-1.21047 0.76786,-1.71979 0.38793,-0.50932 0.78959,-1.40229 0.89259,-1.98437 0.10299,-0.58209 0.39782,-1.29646 0.65517,-1.5875 0.60076,-0.6794 0.84838,-1.90836 0.5806,-2.88152 -0.15943,-0.5794 -0.0588,-1.06053 0.41497,-1.98437 0.49704,-0.96918 0.59352,-1.47014 0.46999,-2.4403 -0.11615,-0.91217 -0.054,-1.30495 0.24577,-1.55375 0.50814,-0.42172 0.52207,-2.11261 0.0272,-3.29707 -0.26436,-0.63271 -0.30802,-1.18796 -0.14889,-1.89352 0.26083,-1.15652 0.092,-2.3574 -0.45464,-3.23367 -0.32192,-0.51605 -0.33061,-0.82347 -0.0538,-1.90359 0.25639,-1.00037 0.2607,-1.51992 0.0193,-2.32566 -0.17097,-0.57064 -0.3113,-1.73809 -0.31184,-2.59433 -8e-4,-1.13233 -0.15693,-1.8093 -0.57291,-2.48285 -0.38258,-0.61947 -0.55205,-1.27842 -0.51189,-1.99045 0.0755,-1.33889 -0.32588,-2.41743 -1.27781,-3.43351 -0.44849,-0.47871 -0.80498,-1.2138 -0.8982,-1.85208 -0.11243,-0.76989 -0.41011,-1.28231 -1.09222,-1.88012 -0.68842,-0.60336 -0.93765,-1.03584 -0.93765,-1.62706 0,-0.48096 -0.3709,-1.35643 -0.92097,-2.17383 -0.50654,-0.75271 -1.0518,-1.86601 -1.21168,-2.47399 -0.20946,-0.79647 -0.7191,-1.51669 -1.82352,-2.57698 -0.84304,-0.80936 -1.61811,-1.7403 -1.72236,-2.06877 -0.19032,-0.59964 -1.57078,-1.6162 -2.19727,-1.61805 -0.18435,-5.3e-4 -0.8392,-0.52442 -1.45521,-1.16417 -0.76936,-0.799 -1.4928,-1.26141 -2.31065,-1.47693 -0.65485,-0.17256 -1.78594,-0.53341 -2.51355,-0.80189 -0.7276,-0.26848 -1.82893,-0.55636 -2.44739,-0.63974 -0.618471,-0.0834 -1.587541,-0.22237 -2.153501,-0.30888 -0.62254,-0.0952 -1.27577,-0.0247 -1.65365,0.1784 -0.34354,0.18462 -1.18606,0.35593 -1.87227,0.38067 -0.85188,0.0307 -1.58445,0.26787 -2.30943,0.74764 -0.58398,0.38646 -1.28641,0.70266 -1.56094,0.70266 -0.66706,0 -1.8754,0.97645 -2.17123,1.75454 -0.13106,0.34469 -0.45597,0.62671 -0.72204,0.62671 -0.835,0 -3.20265,1.3332 -3.96152,2.23068 -0.47456,0.56124 -1.228348,1.02048 -2.169741,1.32191 -0.793403,0.25404 -1.732192,0.68973 -2.086202,0.96819 -0.364183,0.28647 -1.058963,0.50639 -1.600161,0.50651 -0.526079,1.2e-4 -1.671925,0.33867 -2.546326,0.75233 -0.874403,0.41367 -2.05949,0.84023 -2.633527,0.94792 -1.443797,0.27086 -3.032271,1.12252 -4.000863,2.14506 -0.448733,0.47372 -1.300684,1.10864 -1.893221,1.41093 -1.253675,0.63958 -2.030211,1.54053 -2.466059,2.86117 -0.17077,0.51744 -0.669097,1.26121 -1.10739,1.65282 -0.648562,0.57949 -0.822616,0.9797 -0.935069,2.15003 -0.08312,0.86506 -0.359474,1.73732 -0.693613,2.18926 -0.404627,0.54729 -0.53648,1.06853 -0.485616,1.91973 0.0384,0.64265 0.06576,1.52565 0.0608,1.96221 -0.05537,4.87232 0.004,5.84335 0.417187,6.82765 0.225716,0.53766 0.457618,1.6158 0.515337,2.39587 0.05798,0.78362 0.317188,1.71782 0.579234,2.08763 0.72735,1.02645 0.787093,1.16348 1.116163,2.56007 0.168926,0.71693 0.659156,1.78219 1.089401,2.36723 0.430246,0.58504 0.782264,1.35985 0.782264,1.7218 0,0.97588 1.014828,2.89382 1.862987,3.5209 0.408691,0.30215 0.816266,0.84098 0.905719,1.1974 0.08946,0.35641 0.902073,1.47099 1.805823,2.47684 0.903748,1.00586 2.114696,2.3757 2.690993,3.04409 0.576297,0.6684 1.516068,1.45415 2.088377,1.74613 0.572313,0.29197 1.33032,0.87521 1.684465,1.29608 0.354145,0.42088 1.381408,1.11721 2.282804,1.54741 0.901398,0.4302 1.918014,1.07928 2.259152,1.4424 0.341136,0.36313 1.191813,0.80671 1.890392,0.98575 0.89716,0.22994 1.35446,0.5106 1.55729,0.95574 0.30854,0.67718 2.14905,1.64711 3.14355,1.65661 0.3344,0.003 0.87977,0.32177 1.21194,0.70793 0.49591,0.57654 0.88407,0.72297 2.17012,0.81866 0.8614,0.0641 2.22102,0.33835 3.02139,0.60944 2.04669,0.69323 2.40932,0.75739 3.30729,0.58519 0.43656,-0.0837 1.15094,-0.12012 1.5875,-0.0809 z" id="path1162"/> <path style="fill:#ff8080;stroke-width:0.256431" d="m 96.563939,219.5672 c -9.94858,-1.61211 -18.277009,-7.64608 -25.375325,-18.38451 -6.196999,-9.3749 -7.810023,-17.12086 -4.801563,-23.05777 0.789358,-1.55772 2.734096,-3.58734 4.081267,-4.25941 0.509323,-0.25408 2.592917,-1.07026 4.630208,-1.81371 5.328793,-1.94461 9.156773,-3.85235 12.078593,-6.01957 6.40245,-4.74894 11.68281,-5.72217 16.847241,-3.10516 5.05166,2.55987 11.23515,11.19484 14.03732,19.6025 3.27051,9.81284 2.88699,23.80348 -0.84761,30.92032 -1.6554,3.15463 -4.08086,4.85113 -8.38117,5.86225 -2.68284,0.63082 -9.123791,0.76472 -12.268961,0.25506 z" id="path1164"/> <path style="fill:#f9f9f9;stroke-width:0.256431" d="m 109.03061,218.92624 c 2.82341,-0.69518 5.00606,-1.81113 6.26257,-3.20193 4.57693,-5.06612 6.10415,-19.70193 3.19601,-30.62821 -1.54311,-5.79767 -4.41428,-11.41879 -8.29132,-16.23257 -2.28472,-2.83674 -4.24962,-4.5501 -6.48524,-5.655 -5.115581,-2.52826 -9.670131,-1.69851 -16.178691,2.94741 -3.72211,2.65692 -6.300175,3.94883 -12.558444,6.29326 -4.875413,1.8264 -5.865823,2.42836 -7.482578,4.54785 -1.583029,2.07527 -2.184434,4.19745 -2.16771,7.64919 0.02135,4.40723 1.411391,8.60761 4.640601,14.02291 7.311665,12.26146 16.845981,19.39096 27.755061,20.75449 3.056991,0.3821 8.755631,0.13147 11.309741,-0.4974 z" id="path1166"/> <path style="fill:#6c5353;stroke-width:0.256431" d="m 99.250059,212.99898 c -2.26541,-0.95519 -3.88267,-2.08499 -5.87641,-4.10522 -4.23692,-4.29322 -6.79948,-9.65797 -7.96713,-16.67927 -0.54059,-3.25072 -0.41412,-7.65431 0.27603,-9.61082 1.86446,-5.28558 8.97354,-3.67113 16.187281,3.67607 4.28407,4.36332 7.78767,9.78497 9.11773,14.1092 0.88918,2.89089 0.8624,6.21864 -0.066,8.20209 -0.98232,2.09863 -1.89222,3.04514 -3.85736,4.01258 -1.46845,0.72291 -2.08788,0.86842 -4.01856,0.94398 -1.94426,0.0761 -2.50675,-0.005 -3.795571,-0.54861 z" id="path1168"/> <path style="fill:#916f6f;stroke-width:0.256431" d="m 105.20802,212.92478 c 0.46572,-0.23583 1.04761,-0.60469 1.29311,-0.81967 0.24549,-0.21499 0.57806,-0.30949 0.73903,-0.21 0.4009,0.24777 2.00374,-1.01962 2.78353,-2.20098 0.35243,-0.53393 0.83193,-1.71904 1.06556,-2.63357 0.49302,-1.92997 0.38716,-3.18324 -0.11656,-1.37992 -0.53877,1.9288 -1.84657,4.36775 -2.85581,5.32588 l -0.93941,0.89183 1.00064,-1.32292 c 2.08199,-2.75253 3.32945,-6.84786 2.77877,-9.12254 -0.68849,-2.84398 -2.45993,-6.36814 -4.9679,-9.88336 -2.02178,-2.83375 -6.887571,-7.71864 -9.199951,-9.23606 -4.75884,-3.12281 -8.70419,-3.36744 -10.30326,-0.63883 -2.23445,3.8128 -1.03112,13.80951 2.50508,20.811 2.27436,4.50314 6.89915,8.97866 10.68808,10.34311 1.707741,0.61499 4.391871,0.65189 5.529091,0.076 z" id="path1170"/> <path id="path1178" style="fill:#f4d7d7;stroke-width:0.256431" d="m 96.933019,166.85724 c -2.01464,0.005 -3.69549,0.55062 -5.55212,1.74045 -0.80613,0.51663 -2.29897,1.26886 -3.31762,1.67175 -1.01865,0.40285 -1.63608,0.73654 -1.37201,0.74154 0.72721,0.0138 2.99626,-1.01721 5.16919,-2.34868 1.87311,-1.14776 2.03633,-1.19602 4.39457,-1.29915 4.137761,-0.18098 6.948061,0.77234 9.618011,3.26234 1.80793,1.68603 2.21611,1.66848 0.56224,-0.0243 -1.58302,-1.62026 -4.82183,-3.19302 -7.357691,-3.57291 -0.7646,-0.11454 -1.47302,-0.17275 -2.14457,-0.17105 z m 0.35863,3.64524 c -0.80818,0.0134 -1.55831,0.18148 -2.19831,0.508 -0.62057,0.31657 -1.07894,0.62534 -1.01854,0.68575 0.0604,0.0604 0.57343,-0.12666 1.13998,-0.41548 2.67652,-1.36459 6.186291,-0.0294 10.031941,3.8163 1.72571,1.72569 4.53688,5.35699 6.31745,8.16023 1.08831,1.71336 1.62902,2.09248 0.66921,0.46921 -2.92724,-4.95065 -8.31066,-10.86969 -11.1895,-12.3026 -1.266041,-0.63016 -2.571031,-0.94099 -3.752231,-0.92141 z m -22.542288,4.83021 c -0.362654,-0.0116 -1.373442,0.33462 -2.103748,0.77359 -1.103862,0.66349 -2.052134,1.90809 -2.589506,3.39875 -0.441684,1.22524 -0.838022,5.97879 -0.559138,6.70555 0.08865,0.23101 0.194693,0.41963 0.235643,0.4191 0.04095,-5e-4 0.08599,-1.28045 0.100253,-2.84427 0.02053,-2.25105 0.14695,-3.15579 0.606682,-4.34393 0.657942,-1.70042 2.238809,-3.32026 3.484025,-3.56928 0.433877,-0.0868 0.856007,-0.26638 0.937927,-0.39894 0.05763,-0.0933 0.0087,-0.13671 -0.112138,-0.14057 z m 0.06666,3.7574 -0.561721,0.48162 c -0.309017,0.26503 -0.839459,1.09847 -1.17874,1.85208 -0.536659,1.19203 -0.614074,1.7661 -0.595312,4.41317 0.01774,2.50357 0.148328,3.46464 0.737939,5.42396 0.895942,2.97728 2.992763,7.38042 5.192963,10.90528 0.928111,1.48688 1.737696,2.6538 1.798858,2.5926 0.06116,-0.0612 -0.563669,-1.18094 -1.388547,-2.48822 -6.167599,-9.77466 -7.759496,-17.79953 -4.46691,-22.51903 z"/> <path style="fill:#c22619;fill-opacity:1;stroke-width:0.256431" d="m 50.553917,153.70413 c 7.94e-4,-0.31719 -1.156897,-2.50797 -1.864803,-2.77543 -0.409654,-0.15478 -1.207725,-0.28142 -1.773488,-0.28142 -0.992336,0 -2.712177,1.40575 -2.7106,1.72691 5.29e-4,0.0858 0.56597,0.45362 1.256771,0.81742 1.004879,0.52921 1.639469,0.66146 3.173891,0.66146 1.054838,0 1.918042,-0.067 1.918229,-0.14894 z" id="path1308"/> <path style="fill:#89a02c;fill-opacity:1;stroke-width:0.256431" d="m 42.953403,92.61842 c 0.101945,-1.52918 -1.039588,-2.78594 -1.060164,-3.48676 l -0.02331,-0.79375 c -0.757029,0.47242 -1.068711,2.15171 -1.211072,3.26097 l 0.0047,1.6514 1.237698,-0.0984 c 1.028414,-0.0818 1.025982,-0.14134 1.052121,-0.53343 z" id="path1316"/> <path style="fill:#9bb431;fill-opacity:1;stroke-width:0.25643" d="m 43.485589,92.64315 c 0.515819,-1.0191 -0.394723,-3.82867 -1.382914,-4.26711 -0.913706,-0.40539 -0.828573,2.61109 0.114302,4.04999 0.586505,0.89504 0.898453,0.94844 1.268612,0.21712 z" id="path1318"/> <path id="path1244" style="fill:#a41f14;fill-opacity:1;stroke-width:0.256431" d="m 59.121891,168.90466 c -0.251624,5.8e-4 -0.0809,0.21201 0.415478,0.51469 0.972984,0.59328 1.406115,1.28347 1.406115,2.24121 0,0.52168 0.210656,0.76356 0.926042,1.06246 0.726945,0.30374 0.933418,0.54634 0.961699,1.1281 0.0314,0.64575 0.05139,0.66265 0.152961,0.13126 0.133049,-0.69609 -0.303686,-1.33119 -1.132747,-1.64642 -0.401735,-0.15274 -0.619329,-0.52768 -0.738973,-1.27587 -0.175591,-1.0981 -1.153679,-2.15744 -1.990575,-2.15543 z m -3.928443,0.79272 c -0.583258,0 -0.188714,0.3465 0.517282,0.45423 0.641048,0.0978 1.528588,0.80582 1.528588,1.21957 0,0.14788 -0.19738,0.48628 -0.438217,0.7524 -0.270764,0.29919 -0.319076,0.48421 -0.126605,0.48421 0.549013,0 0.921546,-1.18514 0.575675,-1.83142 -0.308973,-0.57732 -1.265322,-1.07899 -2.056723,-1.07899 z m 4.475178,4.25606 c -0.01173,1.3e-4 -0.02354,6.3e-4 -0.03514,0.001 -0.595842,0.0211 -0.570412,0.054 0.21549,0.28009 0.811639,0.23355 0.875612,0.32554 0.731221,1.04748 -0.09789,0.48948 -0.05883,0.73007 0.10232,0.63045 0.362437,-0.22399 0.32635,-1.2813 -0.05684,-1.66449 -0.16917,-0.16918 -0.593328,-0.29856 -0.957049,-0.29456 z m -1.454689,0.53641 c -0.0085,0 -0.01691,3e-5 -0.02532,5.1e-4 -0.468156,0.026 -0.479237,0.0496 -0.07441,0.15451 1.100344,0.28517 1.064877,2.05264 -0.05839,2.91508 -0.246989,0.18962 -0.291804,0.32573 -0.108522,0.33073 0.381627,0.0103 1.4087,-1.25389 1.4087,-1.73427 0,-0.78589 -0.609542,-1.66772 -1.142047,-1.66656 z m -8.478555,6.45232 -0.101801,1.32085 c -0.137826,1.78988 -0.67016,2.3463 -2.047938,2.13889 -0.752335,-0.11327 -0.946248,-0.0829 -0.665075,0.10438 0.612293,0.40772 1.889037,0.32025 2.426208,-0.16589 0.372554,-0.33716 0.472868,-0.77841 0.436149,-1.91823 z m 9.416997,1.99213 c -0.431146,0.008 -0.430683,0.0241 0.0052,0.27802 0.254661,0.14833 0.463021,0.52186 0.463021,0.82992 0,0.30805 0.07356,0.48604 0.163814,0.39584 0.325342,-0.32536 -0.173268,-1.5118 -0.632003,-1.50378 z m -14.553117,3.35327 c -0.0387,0.002 -0.05994,0.0199 -0.05994,0.0553 0,0.1416 0.264657,0.44318 0.588079,0.66971 0.735107,0.51488 1.282451,0.52134 1.940967,0.0233 0.605896,-0.45828 0.315563,-0.53007 -0.461473,-0.11419 -0.438076,0.23444 -0.691669,0.18124 -1.305862,-0.27287 -0.314333,-0.23238 -0.585679,-0.36772 -0.701767,-0.36121 z m 10.215398,1.79213 c -0.07947,0.004 -0.264517,0.2027 -0.478007,0.5266 -0.284657,0.43183 -0.789564,0.99494 -1.122413,1.25108 -0.332845,0.25615 -0.468619,0.46829 -0.301789,0.47128 0.380958,0.007 1.94595,-1.75273 1.94355,-2.18591 -2.41e-4,-0.0442 -0.01485,-0.0645 -0.04134,-0.0631 z m -11.139889,1.08056 c -0.09626,-0.002 -0.298982,0.0814 -0.591178,0.27286 -0.364333,0.23871 -0.955775,0.37772 -1.315167,0.30901 -0.359126,-0.0686 -0.590094,-0.0227 -0.513146,0.10181 0.213016,0.34467 1.505432,0.25403 2.027267,-0.14211 0.433372,-0.32898 0.542383,-0.53882 0.392224,-0.54157 z m 13.225033,1.51775 c -0.03374,0.005 -0.09408,0.2081 -0.214458,0.62373 -0.140798,0.48612 -0.600408,1.064 -1.100706,1.38441 -0.472395,0.30252 -0.71954,0.55248 -0.548804,0.55449 0.67161,0.01 1.93866,-1.36007 1.914609,-2.06965 -0.01116,-0.32941 -0.01895,-0.49808 -0.05064,-0.49298 z m -3.7021,1.14308 c -0.07947,0.01 -0.225774,0.19013 -0.441317,0.54364 -0.281485,0.46162 -0.787011,0.8917 -1.123445,0.956 l -0.611333,0.11678 0.595313,0.0362 c 0.696145,0.0421 1.653913,-0.81868 1.652614,-1.48519 -2.52e-4,-0.117 -0.02415,-0.17314 -0.07183,-0.16743 z m 4.697389,0.43924 c -0.01638,8.2e-4 -0.02966,0.005 -0.03876,0.0145 -0.07276,0.0728 0.127878,0.39246 0.445452,0.71004 0.578364,0.57835 0.613474,1.27465 0.126606,2.50941 -0.161663,0.41 -0.135594,0.46188 0.115755,0.23048 0.178422,-0.16428 0.388469,-0.77576 0.466638,-1.35858 0.114898,-0.85659 0.03014,-1.17084 -0.440283,-1.64124 -0.280053,-0.28006 -0.560773,-0.47024 -0.675409,-0.46458 z m -1.237652,1.9885 c -0.06372,-0.002 -0.209077,0.27033 -0.372071,0.71573 -0.50392,1.37702 -0.910108,1.75574 -2.137336,1.99315 -0.844036,0.16328 -0.888163,0.20043 -0.269234,0.22583 1.548524,0.0636 2.881627,-1.28882 2.812748,-2.85356 -0.0024,-0.0546 -0.0146,-0.0806 -0.03411,-0.0812 z m -25.115779,1.11313 c -0.142211,0.002 -0.171895,0.14989 0.03307,0.39687 0.196379,0.23662 0.716571,0.38069 1.288811,0.35709 0.894147,-0.0369 0.905862,-0.0472 0.166397,-0.15246 -0.436563,-0.0622 -0.907169,-0.22328 -1.045414,-0.35758 -0.175543,-0.17058 -0.33909,-0.24569 -0.442867,-0.24392 z m 15.817638,1.31826 c -0.09986,0.003 -0.281877,0.13615 -0.542084,0.39635 -0.438047,0.43809 -0.824132,0.58973 -1.256771,0.49403 -0.496485,-0.10978 -0.542909,-0.0796 -0.227377,0.14573 0.218281,0.15592 0.519173,0.28532 0.668692,0.28734 0.46478,0.007 1.447974,-0.80085 1.447974,-1.1896 0,-0.0913 -0.03052,-0.13589 -0.09043,-0.13385 z m -18.630387,1.65624 c -0.0342,0 -0.05467,0.0262 -0.05633,0.0811 -0.0046,0.1528 0.134401,0.42069 0.309026,0.59531 0.174625,0.17463 0.561578,0.30372 0.859895,0.28681 0.523997,-0.0297 0.524487,-0.0348 0.01964,-0.16277 -0.287414,-0.0729 -0.670211,-0.32716 -0.851112,-0.56483 -0.11589,-0.15224 -0.220157,-0.23567 -0.28112,-0.23564 z m 19.494934,0.33692 c -0.104241,0.0116 -0.170635,0.29948 -0.151929,0.70175 0.03448,0.74123 -0.100571,0.90864 -1.192691,1.47693 -0.999996,0.52036 -1.335837,0.58505 -1.785938,0.34417 -0.319468,-0.17094 -0.553971,-0.1901 -0.553971,-0.045 0,0.13851 0.148828,0.31655 0.330729,0.39535 1.1108,0.48117 3.638021,-0.96483 3.638021,-2.08153 0,-0.3478 -0.107188,-0.69858 -0.237713,-0.77928 -0.01631,-0.0101 -0.03162,-0.0141 -0.04651,-0.0124 z m 4.432289,0.13642 c -0.171508,0.005 -0.07927,0.18439 0.205156,0.39947 0.453985,0.34329 0.470233,0.43823 0.130222,0.77824 -0.213016,0.21302 -1.041183,0.50461 -1.840195,0.64752 l -1.452626,0.25939 1.536858,-0.0775 c 1.115714,-0.0562 1.683502,-0.22365 2.070675,-0.61082 0.49526,-0.49527 0.502242,-0.56438 0.09767,-0.96893 -0.239649,-0.23966 -0.576252,-0.43238 -0.747758,-0.42738 z m -11.628231,1.50482 c -0.128889,5.3e-4 -0.450365,0.14528 -0.915707,0.46148 -1.032563,0.70165 -1.658297,0.85529 -1.658297,0.40669 0,-0.14552 -0.1338,-0.26458 -0.29714,-0.26458 -0.199763,0 -0.184539,0.13552 0.04651,0.41391 0.396616,0.47789 1.305314,0.33232 2.260843,-0.36173 0.576371,-0.41863 0.729502,-0.65644 0.563791,-0.65577 z m -12.832291,0.70694 c -0.04176,0.004 -0.06046,0.0656 -0.06046,0.1819 0,0.22156 0.142669,0.54522 0.317294,0.71985 0.174625,0.17462 0.740172,0.29874 1.256771,0.27543 l 0.939477,-0.0424 -0.856795,-0.10647 c -0.487881,-0.0606 -1.028729,-0.35242 -1.256771,-0.67799 -0.168979,-0.24125 -0.278479,-0.35653 -0.339513,-0.35036 z m 23.871409,0.75911 c -0.08878,-0.002 -0.09327,0.1265 -0.01188,0.38293 0.248544,0.78309 -0.684617,1.45741 -2.221569,1.60507 -0.729078,0.0701 -1.325501,0.21103 -1.325501,0.31369 0,0.35703 2.960605,-0.2178 3.462837,-0.67233 0.559165,-0.50602 0.666501,-1.30302 0.212908,-1.58335 -0.04834,-0.0299 -0.08719,-0.0453 -0.11679,-0.046 z m -9.436632,1.09453 c -0.05959,-3e-5 -0.160197,0.0811 -0.273886,0.23151 -0.181901,0.24056 -0.628385,0.55322 -0.992187,0.69503 -0.61922,0.24144 -0.624869,0.25871 -0.08526,0.2744 0.609222,0.0177 1.408181,-0.61256 1.408181,-1.11103 0,-0.0611 -0.02109,-0.0899 -0.05684,-0.0899 z m 2.833937,0.50176 c -0.156041,0.002 -0.594755,0.2486 -1.056786,0.601 -0.537546,0.41002 -1.296882,0.73226 -1.725475,0.73226 -0.421008,0 -0.704368,0.0994 -0.62942,0.22066 0.07495,0.12129 0.344451,0.22066 0.598414,0.22066 0.549957,0 3.071254,-1.55069 2.861841,-1.76011 -0.01,-0.01 -0.02628,-0.0148 -0.04857,-0.0145 z m -12.65091,0.21137 c -0.0521,9.5e-4 -0.142192,0.0246 -0.271301,0.0703 -1.171217,0.41402 -1.747782,0.46026 -2.26601,0.18293 -0.319331,-0.17095 -0.553456,-0.18966 -0.553456,-0.0445 0,0.13851 0.148828,0.3175 0.330729,0.3974 0.486818,0.21381 2.405232,-0.0824 2.71198,-0.41857 0.116763,-0.12798 0.134897,-0.18918 0.04806,-0.18759 z m 4.714441,0.21394 -0.901236,0.43821 c -0.588339,0.28596 -1.230839,0.38454 -1.852084,0.28474 -0.65832,-0.10573 -0.828635,-0.0743 -0.553971,0.10075 0.6756,0.43075 2.025496,0.28927 2.682523,-0.28109 z m 13.529924,0.66403 c -0.08117,0.005 -0.212587,0.0882 -0.388091,0.24701 -0.26612,0.24085 -0.675407,0.43823 -0.910021,0.43823 -0.234616,0 -0.500205,0.11907 -0.590145,0.26459 -0.220379,0.35658 -0.01681,0.33382 1.066602,-0.11885 0.504647,-0.21088 0.917773,-0.52679 0.917773,-0.70229 0,-0.09 -0.03299,-0.13292 -0.09612,-0.12869 z m -3.731556,1.31619 c -0.07695,0.004 -0.314092,0.13653 -0.753441,0.40463 -0.746,0.45522 -1.245849,0.57732 -1.918229,0.46821 -1.04044,-0.16886 -1.186191,-0.0107 -0.313677,0.34001 0.327422,0.13164 0.628666,0.24681 0.669727,0.2558 0.290925,0.0654 1.85175,-0.78697 2.174544,-1.18753 0.152495,-0.1892 0.208979,-0.28487 0.141076,-0.28112 z m -15.184086,0.31163 c -0.07283,0.007 0.0059,0.23318 0.243396,0.67696 0.155035,0.28967 0.541988,0.63154 0.859896,0.75965 0.76641,0.30882 1.809721,0.31612 2.2841,0.016 0.258403,-0.16349 -0.02878,-0.2267 -0.882634,-0.19431 -1.089747,0.0413 -1.355003,-0.0554 -1.904794,-0.69453 -0.329562,-0.38309 -0.53155,-0.57026 -0.599964,-0.56378 z m 7.533908,0.27543 c -0.10595,0.002 -0.285171,0.0806 -0.48731,0.2222 -0.727512,0.50961 -1.190622,0.5158 -2.1239,0.0289 -0.400183,-0.20878 -0.727604,-0.28569 -0.727604,-0.17105 0,0.11467 0.26789,0.33766 0.595312,0.49559 1.096748,0.52893 2.844271,0.22479 2.844271,-0.49506 0,-0.0558 -0.0372,-0.082 -0.100769,-0.0806 z m -10.82983,1.1007 c -0.06283,0.001 -0.05818,0.0768 -0.0026,0.22169 0.0905,0.23585 0.53327,0.5896 0.984435,0.786 0.940789,0.40955 1.398257,0.43341 2.143538,0.11266 0.397922,-0.17129 0.248168,-0.22114 -0.603581,-0.20204 -0.778068,0.0175 -1.376426,-0.15462 -1.910993,-0.54986 -0.338066,-0.24992 -0.53004,-0.37031 -0.610817,-0.36845 z m 12.929444,0.18086 c -0.05538,-3.9e-4 -0.244375,0.11666 -0.584462,0.35502 -0.459026,0.32176 -1.232932,0.59338 -1.719792,0.6036 -0.735039,0.0154 -0.795451,0.0571 -0.35605,0.24598 0.291042,0.12507 0.564621,0.23577 0.608233,0.24598 0.232148,0.0545 1.59902,-0.80512 1.924431,-1.21028 0.127492,-0.15872 0.173524,-0.23992 0.12764,-0.2403 z m -7.229533,1.65624 c -0.03941,0.002 -0.06098,0.0189 -0.06098,0.0543 0,0.14163 0.264658,0.4432 0.588079,0.66971 0.661011,0.463 2.249051,0.54073 2.851504,0.13954 0.278072,-0.1852 0.0546,-0.21299 -0.745691,-0.092 -0.93097,0.14076 -1.285721,0.0666 -1.918229,-0.401 -0.320109,-0.23659 -0.596463,-0.37542 -0.714684,-0.37053 z"/> </g> </g> </g> </svg>